<svg width="430" height="555" viewBox="0 0 430 555" fill="none" xmlns="http://www.w3.org/2000/svg">
<path d="M12.8 157V45H26.24V94.76H78.72V45H92.16V157H78.72V106.92H26.24V157H12.8ZM145.32 157V57.16H109.32V45H194.76V57.16H158.76V157H145.32ZM211.863 157V45H237.463L267.223 148.52H269.303L299.062 45H324.663V157H311.703V53.8H309.463L279.862 157H256.663L227.063 53.8H224.823V157H211.863ZM350.3 157V45H363.74V144.84H420.38V157H350.3Z" fill="#62626D" fill-opacity="0.3"/>
<path d="M59.04 417V320.4H98.094C104.074 320.4 109.318 321.458 113.826 323.574C118.426 325.598 122.014 328.542 124.59 332.406C127.166 336.178 128.454 340.732 128.454 346.068V347.586C128.454 353.934 126.936 358.948 123.9 362.628C120.864 366.308 117.276 368.792 113.136 370.08V372.012C116.448 372.104 119.162 373.208 121.278 375.324C123.486 377.348 124.59 380.43 124.59 384.57V417H113.136V385.95C113.136 383.19 112.354 381.074 110.79 379.602C109.318 378.13 107.064 377.394 104.028 377.394H70.632V417H59.04ZM70.632 366.906H96.99C103.338 366.906 108.214 365.388 111.618 362.352C115.114 359.224 116.862 354.9 116.862 349.38V348.414C116.862 342.894 115.16 338.616 111.756 335.58C108.352 332.452 103.43 330.888 96.99 330.888H70.632V366.906ZM177.425 418.932C170.617 418.932 164.637 417.506 159.485 414.654C154.333 411.71 150.331 407.616 147.479 402.372C144.627 397.128 143.201 391.056 143.201 384.156V382.5C143.201 375.508 144.627 369.39 147.479 364.146C150.331 358.902 154.287 354.854 159.347 352.002C164.407 349.058 170.203 347.586 176.735 347.586C183.083 347.586 188.695 348.966 193.571 351.726C198.447 354.394 202.265 358.258 205.025 363.318C207.785 368.378 209.165 374.312 209.165 381.12V386.088H154.103C154.379 393.356 156.725 399.06 161.141 403.2C165.557 407.248 171.077 409.272 177.701 409.272C183.497 409.272 187.959 407.938 191.087 405.27C194.215 402.602 196.607 399.428 198.263 395.748L207.647 400.302C206.267 403.154 204.335 406.006 201.851 408.858C199.459 411.71 196.285 414.102 192.329 416.034C188.465 417.966 183.497 418.932 177.425 418.932ZM154.241 377.118H198.125C197.757 370.862 195.595 365.986 191.639 362.49C187.775 358.994 182.807 357.246 176.735 357.246C170.571 357.246 165.511 358.994 161.555 362.49C157.599 365.986 155.161 370.862 154.241 377.118ZM248.881 418.932C244.189 418.932 239.911 418.104 236.047 416.448C232.183 414.792 229.147 412.4 226.939 409.272C224.731 406.144 223.627 402.326 223.627 397.818C223.627 393.218 224.731 389.446 226.939 386.502C229.147 383.466 232.183 381.212 236.047 379.74C239.911 378.176 244.235 377.394 249.019 377.394H271.789V372.426C271.789 367.642 270.363 363.87 267.511 361.11C264.751 358.35 260.611 356.97 255.091 356.97C249.663 356.97 245.431 358.304 242.395 360.972C239.359 363.548 237.289 367.044 236.185 371.46L225.973 368.148C227.077 364.376 228.825 360.972 231.217 357.936C233.609 354.808 236.783 352.324 240.739 350.484C244.787 348.552 249.617 347.586 255.229 347.586C263.877 347.586 270.593 349.84 275.377 354.348C280.161 358.764 282.553 365.02 282.553 373.116V403.614C282.553 406.374 283.841 407.754 286.417 407.754H292.627V417H283.105C280.069 417 277.631 416.172 275.791 414.516C273.951 412.768 273.031 410.468 273.031 407.616V406.926H271.375C270.363 408.674 268.983 410.514 267.235 412.446C265.579 414.286 263.279 415.804 260.335 417C257.391 418.288 253.573 418.932 248.881 418.932ZM250.123 409.548C256.563 409.548 261.761 407.662 265.717 403.89C269.765 400.026 271.789 394.644 271.789 387.744V386.226H249.433C245.109 386.226 241.521 387.192 238.669 389.124C235.909 390.964 234.529 393.77 234.529 397.542C234.529 401.314 235.955 404.258 238.807 406.374C241.751 408.49 245.523 409.548 250.123 409.548ZM336.721 418.932C330.189 418.932 324.301 417.552 319.057 414.792C313.905 411.94 309.811 407.892 306.775 402.648C303.831 397.404 302.359 391.194 302.359 384.018V382.5C302.359 375.232 303.831 369.022 306.775 363.87C309.811 358.626 313.905 354.624 319.057 351.864C324.301 349.012 330.189 347.586 336.721 347.586C343.161 347.586 348.635 348.782 353.143 351.174C357.743 353.566 361.331 356.74 363.907 360.696C366.575 364.652 368.277 368.884 369.013 373.392L358.387 375.6C357.927 372.288 356.823 369.252 355.075 366.492C353.419 363.732 351.073 361.524 348.037 359.868C345.001 358.212 341.275 357.384 336.859 357.384C332.351 357.384 328.303 358.396 324.715 360.42C321.219 362.444 318.413 365.342 316.297 369.114C314.273 372.886 313.261 377.394 313.261 382.638V383.88C313.261 389.124 314.273 393.632 316.297 397.404C318.413 401.176 321.219 404.074 324.715 406.098C328.303 408.122 332.351 409.134 336.859 409.134C343.575 409.134 348.681 407.386 352.177 403.89C355.765 400.394 357.973 396.07 358.801 390.918L369.565 393.264C368.553 397.68 366.713 401.866 364.045 405.822C361.377 409.778 357.743 412.952 353.143 415.344C348.635 417.736 343.161 418.932 336.721 418.932ZM410.157 417C406.293 417 403.303 415.942 401.187 413.826C399.163 411.71 398.151 408.812 398.151 405.132V359.04H377.865V349.518H398.151V325.506H409.053V349.518H431.133V359.04H409.053V403.476C409.053 406.236 410.387 407.616 413.055 407.616H428.097V417H410.157Z" fill="black" fill-opacity="0.5"/>
<path d="M51.84 525.24C43.52 525.24 36.16 523.533 29.76 520.12C23.4667 516.6 18.5067 511.48 14.88 504.76C11.36 498.04 9.6 489.72 9.6 479.8V454.2C9.6 439.373 13.5467 428.12 21.44 420.44C29.3333 412.653 39.9467 408.76 53.28 408.76C66.5067 408.76 76.5867 412.387 83.52 419.64C90.4533 426.893 93.92 436.6 93.92 448.76V449.56H80.64V448.44C80.64 443.107 79.68 438.36 77.76 434.2C75.84 430.04 72.8533 426.787 68.8 424.44C64.7467 421.987 59.5733 420.76 53.28 420.76C43.7867 420.76 36.3733 423.693 31.04 429.56C25.7067 435.32 23.04 443.427 23.04 453.88V480.12C23.04 490.573 25.7067 498.733 31.04 504.6C36.3733 510.36 43.84 513.24 53.44 513.24C62.8267 513.24 69.7067 510.573 74.08 505.24C78.56 499.907 80.8 492.813 80.8 483.96V481.24H46.88V469.72H93.92V523H81.76V510.84H79.52C78.3467 513.187 76.6933 515.48 74.56 517.72C72.4267 519.96 69.5467 521.773 65.92 523.16C62.2933 524.547 57.6 525.24 51.84 525.24ZM118.425 523V411H131.865V523H118.425ZM185.008 523V423.16H149.008V411H234.448V423.16H198.448V523H185.008Z" fill="#99B34E" fill-opacity="0.5"/>
<path d="M11.618 326.204C5.71267 326.204 1.04 324.541 -2.4 321.216C-5.78267 317.891 -7.474 313.132 -7.474 306.94V302.296H-0.336V306.94C-0.336 310.667 0.638667 313.705 2.588 316.056C4.59467 318.407 7.576 319.582 11.532 319.582C15.5453 319.582 18.3833 318.435 20.046 316.142C21.7087 313.791 22.54 310.724 22.54 306.94V271.336H11.962V264.8H36.3V271.336H29.764V306.94C29.764 313.189 28.216 317.977 25.12 321.302C22.024 324.57 17.5233 326.204 11.618 326.204ZM57.8329 326.204C54.9089 326.204 52.2429 325.688 49.8349 324.656C47.4269 323.624 45.5349 322.133 44.1589 320.184C42.7829 318.235 42.0949 315.855 42.0949 313.046C42.0949 310.179 42.7829 307.829 44.1589 305.994C45.5349 304.102 47.4269 302.697 49.8349 301.78C52.2429 300.805 54.9376 300.318 57.9189 300.318H72.1089V297.222C72.1089 294.241 71.2203 291.89 69.4429 290.17C67.7229 288.45 65.1429 287.59 61.7029 287.59C58.3203 287.59 55.6829 288.421 53.7909 290.084C51.8989 291.689 50.6089 293.868 49.9209 296.62L43.5569 294.556C44.2449 292.205 45.3343 290.084 46.8249 288.192C48.3156 286.243 50.2936 284.695 52.7589 283.548C55.2816 282.344 58.2916 281.742 61.7889 281.742C67.1783 281.742 71.3636 283.147 74.3449 285.956C77.3263 288.708 78.8169 292.607 78.8169 297.652V316.658C78.8169 318.378 79.6196 319.238 81.2249 319.238H85.0949V325H79.1609C77.2689 325 75.7496 324.484 74.6029 323.452C73.4563 322.363 72.8829 320.929 72.8829 319.152V318.722H71.8509C71.2203 319.811 70.3603 320.958 69.2709 322.162C68.2389 323.309 66.8056 324.255 64.9709 325C63.1363 325.803 60.7569 326.204 57.8329 326.204ZM58.6069 320.356C62.6203 320.356 65.8596 319.181 68.3249 316.83C70.8476 314.422 72.1089 311.068 72.1089 306.768V305.822H58.1769C55.4823 305.822 53.2463 306.424 51.4689 307.628C49.7489 308.775 48.8889 310.523 48.8889 312.874C48.8889 315.225 49.7776 317.059 51.5549 318.378C53.3896 319.697 55.7403 320.356 58.6069 320.356ZM102.712 325L87.6622 282.946H94.8862L107.528 319.926H108.732L121.374 282.946H128.598L113.548 325H102.712ZM149.964 326.204C147.04 326.204 144.374 325.688 141.966 324.656C139.558 323.624 137.666 322.133 136.29 320.184C134.914 318.235 134.226 315.855 134.226 313.046C134.226 310.179 134.914 307.829 136.29 305.994C137.666 304.102 139.558 302.697 141.966 301.78C144.374 300.805 147.068 300.318 150.05 300.318H164.24V297.222C164.24 294.241 163.351 291.89 161.574 290.17C159.854 288.45 157.274 287.59 153.834 287.59C150.451 287.59 147.814 288.421 145.922 290.084C144.03 291.689 142.74 293.868 142.052 296.62L135.688 294.556C136.376 292.205 137.465 290.084 138.956 288.192C140.446 286.243 142.424 284.695 144.89 283.548C147.412 282.344 150.422 281.742 153.92 281.742C159.309 281.742 163.494 283.147 166.476 285.956C169.457 288.708 170.948 292.607 170.948 297.652V316.658C170.948 318.378 171.75 319.238 173.356 319.238H177.226V325H171.292C169.4 325 167.88 324.484 166.734 323.452C165.587 322.363 165.014 320.929 165.014 319.152V318.722H163.982C163.351 319.811 162.491 320.958 161.402 322.162C160.37 323.309 158.936 324.255 157.102 325C155.267 325.803 152.888 326.204 149.964 326.204ZM150.738 320.356C154.751 320.356 157.99 319.181 160.456 316.83C162.978 314.422 164.24 311.068 164.24 306.768V305.822H150.308C147.613 305.822 145.377 306.424 143.6 307.628C141.88 308.775 141.02 310.523 141.02 312.874C141.02 315.225 141.908 317.059 143.686 318.378C145.52 319.697 147.871 320.356 150.738 320.356ZM206.311 326.204C201.953 326.204 198.055 325.43 194.615 323.882C191.175 322.334 188.451 320.012 186.445 316.916C184.495 313.763 183.521 309.835 183.521 305.134V303.328H190.659V305.134C190.659 310.122 192.121 313.849 195.045 316.314C197.969 318.722 201.724 319.926 206.311 319.926C211.012 319.926 214.595 318.865 217.061 316.744C219.526 314.623 220.759 311.957 220.759 308.746C220.759 306.51 220.185 304.733 219.039 303.414C217.949 302.095 216.401 301.035 214.395 300.232C212.388 299.372 210.037 298.627 207.343 297.996L202.871 296.878C199.373 295.961 196.277 294.843 193.583 293.524C190.888 292.205 188.767 290.485 187.219 288.364C185.728 286.185 184.983 283.405 184.983 280.022C184.983 276.639 185.814 273.715 187.477 271.25C189.197 268.785 191.576 266.893 194.615 265.574C197.711 264.255 201.265 263.596 205.279 263.596C209.349 263.596 212.99 264.313 216.201 265.746C219.469 267.122 222.02 269.186 223.855 271.938C225.747 274.633 226.693 278.044 226.693 282.172V285.784H219.555V282.172C219.555 279.248 218.924 276.897 217.663 275.12C216.459 273.343 214.767 272.024 212.589 271.164C210.467 270.304 208.031 269.874 205.279 269.874C201.323 269.874 198.141 270.763 195.733 272.54C193.325 274.26 192.121 276.725 192.121 279.936C192.121 282.057 192.637 283.777 193.669 285.096C194.701 286.415 196.163 287.504 198.055 288.364C199.947 289.167 202.211 289.883 204.849 290.514L209.321 291.632C212.818 292.377 215.943 293.409 218.695 294.728C221.504 295.989 223.74 297.738 225.403 299.974C227.065 302.153 227.897 305.019 227.897 308.574C227.897 312.129 227.008 315.225 225.231 317.862C223.453 320.499 220.931 322.563 217.663 324.054C214.452 325.487 210.668 326.204 206.311 326.204ZM258.623 326.204C254.552 326.204 250.883 325.344 247.615 323.624C244.404 321.847 241.853 319.324 239.961 316.056C238.126 312.788 237.209 308.918 237.209 304.446V303.5C237.209 298.971 238.126 295.101 239.961 291.89C241.853 288.622 244.404 286.128 247.615 284.408C250.883 282.631 254.552 281.742 258.623 281.742C262.636 281.742 266.047 282.487 268.857 283.978C271.723 285.469 273.959 287.447 275.565 289.912C277.227 292.377 278.288 295.015 278.747 297.824L272.125 299.2C271.838 297.136 271.15 295.244 270.061 293.524C269.029 291.804 267.567 290.428 265.675 289.396C263.783 288.364 261.461 287.848 258.709 287.848C255.899 287.848 253.377 288.479 251.141 289.74C248.962 291.001 247.213 292.807 245.895 295.158C244.633 297.509 244.003 300.318 244.003 303.586V304.36C244.003 307.628 244.633 310.437 245.895 312.788C247.213 315.139 248.962 316.945 251.141 318.206C253.377 319.467 255.899 320.098 258.709 320.098C262.894 320.098 266.076 319.009 268.255 316.83C270.491 314.651 271.867 311.957 272.383 308.746L279.091 310.208C278.46 312.96 277.313 315.569 275.651 318.034C273.988 320.499 271.723 322.477 268.857 323.968C266.047 325.459 262.636 326.204 258.623 326.204ZM290.671 325V282.946H297.293V288.106H298.497C299.243 286.271 300.389 284.924 301.937 284.064C303.485 283.204 305.521 282.774 308.043 282.774H313.031V288.966H307.613C304.575 288.966 302.109 289.826 300.217 291.546C298.383 293.209 297.465 295.817 297.465 299.372V325H290.671ZM323.089 325V282.946H329.883V325H323.089ZM326.529 276.41C325.039 276.41 323.777 275.923 322.745 274.948C321.771 273.973 321.283 272.741 321.283 271.25C321.283 269.702 321.771 268.441 322.745 267.466C323.777 266.491 325.039 266.004 326.529 266.004C328.02 266.004 329.253 266.491 330.227 267.466C331.202 268.441 331.689 269.702 331.689 271.25C331.689 272.741 331.202 273.973 330.227 274.948C329.253 275.923 328.02 276.41 326.529 276.41ZM344.169 342.2V282.946H350.791V289.912H351.995C353.085 287.791 354.833 285.899 357.241 284.236C359.707 282.573 363.118 281.742 367.475 281.742C371.087 281.742 374.384 282.631 377.365 284.408C380.404 286.128 382.812 288.593 384.589 291.804C386.424 295.015 387.341 298.885 387.341 303.414V304.532C387.341 309.004 386.453 312.874 384.675 316.142C382.898 319.41 380.49 321.904 377.451 323.624C374.47 325.344 371.145 326.204 367.475 326.204C364.551 326.204 362.057 325.803 359.993 325C357.987 324.255 356.353 323.28 355.091 322.076C353.83 320.872 352.855 319.639 352.167 318.378H350.963V342.2H344.169ZM365.669 320.184C370.027 320.184 373.553 318.808 376.247 316.056C378.999 313.247 380.375 309.348 380.375 304.36V303.586C380.375 298.598 378.999 294.728 376.247 291.976C373.553 289.167 370.027 287.762 365.669 287.762C361.369 287.762 357.815 289.167 355.005 291.976C352.253 294.728 350.877 298.598 350.877 303.586V304.36C350.877 309.348 352.253 313.247 355.005 316.056C357.815 318.808 361.369 320.184 365.669 320.184ZM413.231 325C410.823 325 408.96 324.341 407.641 323.022C406.38 321.703 405.749 319.897 405.749 317.604V288.88H393.107V282.946H405.749V267.982H412.543V282.946H426.303V288.88H412.543V316.572C412.543 318.292 413.375 319.152 415.037 319.152H424.411V325H413.231Z" fill="#388FC5" fill-opacity="0.3"/>
<path d="M162.28 262.24C148.947 262.24 138.333 258.4 130.44 250.72C122.547 242.933 118.6 231.627 118.6 216.8V191.2C118.6 176.373 122.547 165.12 130.44 157.44C138.333 149.653 148.947 145.76 162.28 145.76C175.507 145.76 185.64 149.44 192.68 156.8C199.827 164.16 203.4 174.24 203.4 187.04V187.84H190.12V186.56C190.12 178.133 187.827 171.253 183.24 165.92C178.76 160.48 171.773 157.76 162.28 157.76C152.787 157.76 145.373 160.693 140.04 166.56C134.707 172.32 132.04 180.427 132.04 190.88V217.12C132.04 227.573 134.707 235.733 140.04 241.6C145.373 247.36 152.787 250.24 162.28 250.24C171.773 250.24 178.76 247.573 183.24 242.24C187.827 236.8 190.12 229.867 190.12 221.44V218.88H203.4V220.96C203.4 233.76 199.827 243.84 192.68 251.2C185.64 258.56 175.507 262.24 162.28 262.24ZM261.736 262.24C253.63 262.24 246.376 260.8 239.976 257.92C233.576 255.04 228.51 250.72 224.776 244.96C221.15 239.093 219.336 231.787 219.336 223.04V219.68H232.616V223.04C232.616 232.32 235.336 239.253 240.776 243.84C246.216 248.32 253.203 250.56 261.736 250.56C270.483 250.56 277.15 248.587 281.736 244.64C286.323 240.693 288.616 235.733 288.616 229.76C288.616 225.6 287.55 222.293 285.416 219.84C283.39 217.387 280.51 215.413 276.776 213.92C273.043 212.32 268.67 210.933 263.656 209.76L255.336 207.68C248.83 205.973 243.07 203.893 238.056 201.44C233.043 198.987 229.096 195.787 226.216 191.84C223.443 187.787 222.056 182.613 222.056 176.32C222.056 170.027 223.603 164.587 226.696 160C229.896 155.413 234.323 151.893 239.976 149.44C245.736 146.987 252.35 145.76 259.816 145.76C267.39 145.76 274.163 147.093 280.136 149.76C286.216 152.32 290.963 156.16 294.376 161.28C297.896 166.293 299.656 172.64 299.656 180.32V187.04H286.376V180.32C286.376 174.88 285.203 170.507 282.856 167.2C280.616 163.893 277.47 161.44 273.416 159.84C269.47 158.24 264.936 157.44 259.816 157.44C252.456 157.44 246.536 159.093 242.056 162.4C237.576 165.6 235.336 170.187 235.336 176.16C235.336 180.107 236.296 183.307 238.216 185.76C240.136 188.213 242.856 190.24 246.376 191.84C249.896 193.333 254.11 194.667 259.016 195.84L267.336 197.92C273.843 199.307 279.656 201.227 284.776 203.68C290.003 206.027 294.163 209.28 297.256 213.44C300.35 217.493 301.896 222.827 301.896 229.44C301.896 236.053 300.243 241.813 296.936 246.72C293.63 251.627 288.936 255.467 282.856 258.24C276.883 260.907 269.843 262.24 261.736 262.24ZM359.861 262.24C351.755 262.24 344.501 260.8 338.101 257.92C331.701 255.04 326.635 250.72 322.901 244.96C319.275 239.093 317.461 231.787 317.461 223.04V219.68H330.741V223.04C330.741 232.32 333.461 239.253 338.901 243.84C344.341 248.32 351.328 250.56 359.861 250.56C368.608 250.56 375.275 248.587 379.861 244.64C384.448 240.693 386.741 235.733 386.741 229.76C386.741 225.6 385.675 222.293 383.541 219.84C381.515 217.387 378.635 215.413 374.901 213.92C371.168 212.32 366.795 210.933 361.781 209.76L353.461 207.68C346.955 205.973 341.195 203.893 336.181 201.44C331.168 198.987 327.221 195.787 324.341 191.84C321.568 187.787 320.181 182.613 320.181 176.32C320.181 170.027 321.728 164.587 324.821 160C328.021 155.413 332.448 151.893 338.101 149.44C343.861 146.987 350.475 145.76 357.941 145.76C365.515 145.76 372.288 147.093 378.261 149.76C384.341 152.32 389.088 156.16 392.501 161.28C396.021 166.293 397.781 172.64 397.781 180.32V187.04H384.501V180.32C384.501 174.88 383.328 170.507 380.981 167.2C378.741 163.893 375.595 161.44 371.541 159.84C367.595 158.24 363.061 157.44 357.941 157.44C350.581 157.44 344.661 159.093 340.181 162.4C335.701 165.6 333.461 170.187 333.461 176.16C333.461 180.107 334.421 183.307 336.341 185.76C338.261 188.213 340.981 190.24 344.501 191.84C348.021 193.333 352.235 194.667 357.141 195.84L365.461 197.92C371.968 199.307 377.781 201.227 382.901 203.68C388.128 206.027 392.288 209.28 395.381 213.44C398.475 217.493 400.021 222.827 400.021 229.44C400.021 236.053 398.368 241.813 395.061 246.72C391.755 251.627 387.061 255.467 380.981 258.24C375.008 260.907 367.968 262.24 359.861 262.24Z" fill="black" fill-opacity="0.3"/>
</svg>
