<svg width="1441" height="192" viewBox="0 0 1441 192" fill="none" xmlns="http://www.w3.org/2000/svg">
<path d="M1215.84 162.24C1207.52 162.24 1200.16 160.533 1193.76 157.12C1187.47 153.6 1182.51 148.48 1178.88 141.76C1175.36 135.04 1173.6 126.72 1173.6 116.8V91.2C1173.6 76.3733 1177.55 65.12 1185.44 57.44C1193.33 49.6533 1203.95 45.76 1217.28 45.76C1230.51 45.76 1240.59 49.3867 1247.52 56.64C1254.45 63.8933 1257.92 73.6 1257.92 85.76V86.56H1244.64V85.44C1244.64 80.1067 1243.68 75.36 1241.76 71.2C1239.84 67.04 1236.85 63.7867 1232.8 61.44C1228.75 58.9867 1223.57 57.76 1217.28 57.76C1207.79 57.76 1200.37 60.6933 1195.04 66.56C1189.71 72.32 1187.04 80.4267 1187.04 90.88V117.12C1187.04 127.573 1189.71 135.733 1195.04 141.6C1200.37 147.36 1207.84 150.24 1217.44 150.24C1226.83 150.24 1233.71 147.573 1238.08 142.24C1242.56 136.907 1244.8 129.813 1244.8 120.96V118.24H1210.88V106.72H1257.92V160H1245.76V147.84H1243.52C1242.35 150.187 1240.69 152.48 1238.56 154.72C1236.43 156.96 1233.55 158.773 1229.92 160.16C1226.29 161.547 1221.6 162.24 1215.84 162.24ZM1282.43 160V48H1295.87V160H1282.43ZM1349.01 160V60.16H1313.01V48H1398.45V60.16H1362.45V160H1349.01Z" fill="#99B34E" fill-opacity="0.5"/>
<path d="M428.08 160.24C417.093 160.24 408.4 157.147 402 150.96C395.707 144.773 392.56 135.92 392.56 124.4V115.76H405.84V124.4C405.84 131.333 407.653 136.987 411.28 141.36C415.013 145.733 420.56 147.92 427.92 147.92C435.387 147.92 440.667 145.787 443.76 141.52C446.853 137.147 448.4 131.44 448.4 124.4V58.16H428.72V46H474V58.16H461.84V124.4C461.84 136.027 458.96 144.933 453.2 151.12C447.44 157.2 439.067 160.24 428.08 160.24ZM514.061 160.24C508.621 160.24 503.661 159.28 499.181 157.36C494.701 155.44 491.181 152.667 488.621 149.04C486.061 145.413 484.781 140.987 484.781 135.76C484.781 130.427 486.061 126.053 488.621 122.64C491.181 119.12 494.701 116.507 499.181 114.8C503.661 112.987 508.675 112.08 514.221 112.08H540.621V106.32C540.621 100.773 538.968 96.4 535.661 93.2C532.461 90 527.661 88.4 521.261 88.4C514.968 88.4 510.061 89.9467 506.541 93.04C503.021 96.0267 500.621 100.08 499.341 105.2L487.501 101.36C488.781 96.9867 490.808 93.04 493.581 89.52C496.355 85.8933 500.035 83.0133 504.621 80.88C509.315 78.64 514.915 77.52 521.421 77.52C531.448 77.52 539.235 80.1333 544.781 85.36C550.328 90.48 553.101 97.7333 553.101 107.12V142.48C553.101 145.68 554.595 147.28 557.581 147.28H564.781V158H553.741C550.221 158 547.395 157.04 545.261 155.12C543.128 153.093 542.061 150.427 542.061 147.12V146.32H540.141C538.968 148.347 537.368 150.48 535.341 152.72C533.421 154.853 530.755 156.613 527.341 158C523.928 159.493 519.501 160.24 514.061 160.24ZM515.501 149.36C522.968 149.36 528.995 147.173 533.581 142.8C538.275 138.32 540.621 132.08 540.621 124.08V122.32H514.701C509.688 122.32 505.528 123.44 502.221 125.68C499.021 127.813 497.421 131.067 497.421 135.44C497.421 139.813 499.075 143.227 502.381 145.68C505.795 148.133 510.168 149.36 515.501 149.36ZM597.558 158L569.558 79.76H582.998L606.518 148.56H608.758L632.278 79.76H645.718L617.718 158H597.558ZM685.468 160.24C680.028 160.24 675.068 159.28 670.588 157.36C666.108 155.44 662.588 152.667 660.028 149.04C657.468 145.413 656.188 140.987 656.188 135.76C656.188 130.427 657.468 126.053 660.028 122.64C662.588 119.12 666.108 116.507 670.588 114.8C675.068 112.987 680.081 112.08 685.628 112.08H712.028V106.32C712.028 100.773 710.374 96.4 707.068 93.2C703.868 90 699.068 88.4 692.668 88.4C686.374 88.4 681.468 89.9467 677.948 93.04C674.428 96.0267 672.028 100.08 670.748 105.2L658.908 101.36C660.188 96.9867 662.214 93.04 664.988 89.52C667.761 85.8933 671.441 83.0133 676.028 80.88C680.721 78.64 686.321 77.52 692.828 77.52C702.854 77.52 710.641 80.1333 716.188 85.36C721.734 90.48 724.508 97.7333 724.508 107.12V142.48C724.508 145.68 726.001 147.28 728.987 147.28H736.188V158H725.148C721.628 158 718.801 157.04 716.668 155.12C714.534 153.093 713.468 150.427 713.468 147.12V146.32H711.548C710.374 148.347 708.774 150.48 706.748 152.72C704.828 154.853 702.161 156.613 698.748 158C695.334 159.493 690.908 160.24 685.468 160.24ZM686.908 149.36C694.374 149.36 700.401 147.173 704.988 142.8C709.681 138.32 712.028 132.08 712.028 124.08V122.32H686.108C681.094 122.32 676.934 123.44 673.628 125.68C670.428 127.813 668.828 131.067 668.828 135.44C668.828 139.813 670.481 143.227 673.788 145.68C677.201 148.133 681.574 149.36 686.908 149.36ZM790.299 160.24C782.192 160.24 774.939 158.8 768.539 155.92C762.139 153.04 757.072 148.72 753.339 142.96C749.712 137.093 747.899 129.787 747.899 121.04V117.68H761.179V121.04C761.179 130.32 763.899 137.253 769.339 141.84C774.779 146.32 781.765 148.56 790.299 148.56C799.045 148.56 805.712 146.587 810.299 142.64C814.885 138.693 817.179 133.733 817.179 127.76C817.179 123.6 816.112 120.293 813.979 117.84C811.952 115.387 809.072 113.413 805.339 111.92C801.605 110.32 797.232 108.933 792.219 107.76L783.899 105.68C777.392 103.973 771.632 101.893 766.619 99.44C761.605 96.9867 757.659 93.7867 754.779 89.84C752.005 85.7867 750.619 80.6133 750.619 74.32C750.619 68.0267 752.165 62.5867 755.259 58C758.459 53.4133 762.885 49.8933 768.539 47.44C774.299 44.9867 780.912 43.76 788.379 43.76C795.952 43.76 802.725 45.0933 808.699 47.76C814.779 50.32 819.525 54.16 822.939 59.28C826.459 64.2933 828.219 70.64 828.219 78.32V85.04H814.939V78.32C814.939 72.88 813.765 68.5067 811.419 65.2C809.179 61.8933 806.032 59.44 801.979 57.84C798.032 56.24 793.499 55.44 788.379 55.44C781.019 55.44 775.099 57.0933 770.619 60.4C766.139 63.6 763.899 68.1867 763.899 74.16C763.899 78.1067 764.859 81.3067 766.779 83.76C768.699 86.2133 771.419 88.24 774.939 89.84C778.459 91.3333 782.672 92.6667 787.579 93.84L795.899 95.92C802.405 97.3067 808.219 99.2267 813.339 101.68C818.565 104.027 822.725 107.28 825.819 111.44C828.912 115.493 830.459 120.827 830.459 127.44C830.459 134.053 828.805 139.813 825.499 144.72C822.192 149.627 817.499 153.467 811.419 156.24C805.445 158.907 798.405 160.24 790.299 160.24ZM887.624 160.24C880.05 160.24 873.224 158.64 867.144 155.44C861.17 152.133 856.424 147.44 852.904 141.36C849.49 135.28 847.784 128.08 847.784 119.76V118C847.784 109.573 849.49 102.373 852.904 96.4C856.424 90.32 861.17 85.68 867.144 82.48C873.224 79.1733 880.05 77.52 887.624 77.52C895.09 77.52 901.437 78.9067 906.664 81.68C911.997 84.4533 916.157 88.1333 919.144 92.72C922.237 97.3067 924.21 102.213 925.064 107.44L912.744 110C912.21 106.16 910.93 102.64 908.904 99.44C906.984 96.24 904.264 93.68 900.744 91.76C897.224 89.84 892.904 88.88 887.784 88.88C882.557 88.88 877.864 90.0533 873.704 92.4C869.65 94.7467 866.397 98.1067 863.944 102.48C861.597 106.853 860.424 112.08 860.424 118.16V119.6C860.424 125.68 861.597 130.907 863.944 135.28C866.397 139.653 869.65 143.013 873.704 145.36C877.864 147.707 882.557 148.88 887.784 148.88C895.57 148.88 901.49 146.853 905.544 142.8C909.704 138.747 912.264 133.733 913.224 127.76L925.704 130.48C924.53 135.6 922.397 140.453 919.304 145.04C916.21 149.627 911.997 153.307 906.664 156.08C901.437 158.853 895.09 160.24 887.624 160.24ZM947.249 158V79.76H959.569V89.36H961.809C963.195 85.9467 965.329 83.44 968.209 81.84C971.089 80.24 974.875 79.44 979.569 79.44H988.849V90.96H978.769C973.115 90.96 968.529 92.56 965.009 95.76C961.595 98.8533 959.889 103.707 959.889 110.32V158H947.249ZM1007.56 158V79.76H1020.2V158H1007.56ZM1013.96 67.6C1011.19 67.6 1008.84 66.6933 1006.92 64.88C1005.11 63.0667 1004.2 60.7733 1004.2 58C1004.2 55.12 1005.11 52.7733 1006.92 50.96C1008.84 49.1467 1011.19 48.24 1013.96 48.24C1016.73 48.24 1019.03 49.1467 1020.84 50.96C1022.65 52.7733 1023.56 55.12 1023.56 58C1023.56 60.7733 1022.65 63.0667 1020.84 64.88C1019.03 66.6933 1016.73 67.6 1013.96 67.6ZM1046.78 190V79.76H1059.1V92.72H1061.34C1063.37 88.7733 1066.62 85.2533 1071.1 82.16C1075.69 79.0667 1082.03 77.52 1090.14 77.52C1096.86 77.52 1102.99 79.1733 1108.54 82.48C1114.19 85.68 1118.67 90.2667 1121.98 96.24C1125.39 102.213 1127.1 109.413 1127.1 117.84V119.92C1127.1 128.24 1125.45 135.44 1122.14 141.52C1118.83 147.6 1114.35 152.24 1108.7 155.44C1103.15 158.64 1096.97 160.24 1090.14 160.24C1084.7 160.24 1080.06 159.493 1076.22 158C1072.49 156.613 1069.45 154.8 1067.1 152.56C1064.75 150.32 1062.94 148.027 1061.66 145.68H1059.42V190H1046.78ZM1086.78 149.04C1094.89 149.04 1101.45 146.48 1106.46 141.36C1111.58 136.133 1114.14 128.88 1114.14 119.6V118.16C1114.14 108.88 1111.58 101.68 1106.46 96.56C1101.45 91.3333 1094.89 88.72 1086.78 88.72C1078.78 88.72 1072.17 91.3333 1066.94 96.56C1061.82 101.68 1059.26 108.88 1059.26 118.16V119.6C1059.26 128.88 1061.82 136.133 1066.94 141.36C1072.17 146.48 1078.78 149.04 1086.78 149.04ZM1175.27 158C1170.79 158 1167.32 156.773 1164.87 154.32C1162.52 151.867 1161.35 148.507 1161.35 144.24V90.8H1137.83V79.76H1161.35V51.92H1173.99V79.76H1199.59V90.8H1173.99V142.32C1173.99 145.52 1175.53 147.12 1178.63 147.12H1196.07V158H1175.27Z" fill="#388FC5" fill-opacity="0.5"/>
<path d="M12.8 160V48H26.24V97.76H78.72V48H92.16V160H78.72V109.92H26.24V160H12.8ZM145.32 160V60.16H109.32V48H194.76V60.16H158.76V160H145.32ZM211.863 160V48H237.463L267.223 151.52H269.303L299.062 48H324.663V160H311.703V56.8H309.463L279.862 160H256.663L227.063 56.8H224.823V160H211.863ZM350.3 160V48H363.74V147.84H420.38V160H350.3Z" fill="#62626D" fill-opacity="0.5"/>
<path d="M312.28 159.24C298.947 159.24 288.333 155.4 280.44 147.72C272.547 139.933 268.6 128.627 268.6 113.8V88.2C268.6 73.3733 272.547 62.12 280.44 54.44C288.333 46.6533 298.947 42.76 312.28 42.76C325.507 42.76 335.64 46.44 342.68 53.8C349.827 61.16 353.4 71.24 353.4 84.04V84.84H340.12V83.56C340.12 75.1333 337.827 68.2533 333.24 62.92C328.76 57.48 321.773 54.76 312.28 54.76C302.787 54.76 295.373 57.6933 290.04 63.56C284.707 69.32 282.04 77.4267 282.04 87.88V114.12C282.04 124.573 284.707 132.733 290.04 138.6C295.373 144.36 302.787 147.24 312.28 147.24C321.773 147.24 328.76 144.573 333.24 139.24C337.827 133.8 340.12 126.867 340.12 118.44V115.88H353.4V117.96C353.4 130.76 349.827 140.84 342.68 148.2C335.64 155.56 325.507 159.24 312.28 159.24ZM411.736 159.24C403.63 159.24 396.376 157.8 389.976 154.92C383.576 152.04 378.51 147.72 374.776 141.96C371.15 136.093 369.336 128.787 369.336 120.04V116.68H382.616V120.04C382.616 129.32 385.336 136.253 390.776 140.84C396.216 145.32 403.203 147.56 411.736 147.56C420.483 147.56 427.15 145.587 431.736 141.64C436.323 137.693 438.616 132.733 438.616 126.76C438.616 122.6 437.55 119.293 435.416 116.84C433.39 114.387 430.51 112.413 426.776 110.92C423.043 109.32 418.67 107.933 413.656 106.76L405.336 104.68C398.83 102.973 393.07 100.893 388.056 98.44C383.043 95.9867 379.096 92.7867 376.216 88.84C373.443 84.7867 372.056 79.6133 372.056 73.32C372.056 67.0267 373.603 61.5867 376.696 57C379.896 52.4133 384.323 48.8933 389.976 46.44C395.736 43.9867 402.35 42.76 409.816 42.76C417.39 42.76 424.163 44.0933 430.136 46.76C436.216 49.32 440.963 53.16 444.376 58.28C447.896 63.2933 449.656 69.64 449.656 77.32V84.04H436.376V77.32C436.376 71.88 435.203 67.5067 432.856 64.2C430.616 60.8933 427.47 58.44 423.416 56.84C419.47 55.24 414.936 54.44 409.816 54.44C402.456 54.44 396.536 56.0933 392.056 59.4C387.576 62.6 385.336 67.1867 385.336 73.16C385.336 77.1067 386.296 80.3067 388.216 82.76C390.136 85.2133 392.856 87.24 396.376 88.84C399.896 90.3333 404.11 91.6667 409.016 92.84L417.336 94.92C423.843 96.3067 429.656 98.2267 434.776 100.68C440.003 103.027 444.163 106.28 447.256 110.44C450.35 114.493 451.896 119.827 451.896 126.44C451.896 133.053 450.243 138.813 446.936 143.72C443.63 148.627 438.936 152.467 432.856 155.24C426.883 157.907 419.843 159.24 411.736 159.24ZM509.861 159.24C501.755 159.24 494.501 157.8 488.101 154.92C481.701 152.04 476.635 147.72 472.901 141.96C469.275 136.093 467.461 128.787 467.461 120.04V116.68H480.741V120.04C480.741 129.32 483.461 136.253 488.901 140.84C494.341 145.32 501.328 147.56 509.861 147.56C518.608 147.56 525.275 145.587 529.861 141.64C534.448 137.693 536.741 132.733 536.741 126.76C536.741 122.6 535.675 119.293 533.541 116.84C531.515 114.387 528.635 112.413 524.901 110.92C521.168 109.32 516.795 107.933 511.781 106.76L503.461 104.68C496.955 102.973 491.195 100.893 486.181 98.44C481.168 95.9867 477.221 92.7867 474.341 88.84C471.568 84.7867 470.181 79.6133 470.181 73.32C470.181 67.0267 471.728 61.5867 474.821 57C478.021 52.4133 482.448 48.8933 488.101 46.44C493.861 43.9867 500.475 42.76 507.941 42.76C515.515 42.76 522.288 44.0933 528.261 46.76C534.341 49.32 539.088 53.16 542.501 58.28C546.021 63.2933 547.781 69.64 547.781 77.32V84.04H534.501V77.32C534.501 71.88 533.328 67.5067 530.981 64.2C528.741 60.8933 525.595 58.44 521.541 56.84C517.595 55.24 513.061 54.44 507.941 54.44C500.581 54.44 494.661 56.0933 490.181 59.4C485.701 62.6 483.461 67.1867 483.461 73.16C483.461 77.1067 484.421 80.3067 486.341 82.76C488.261 85.2133 490.981 87.24 494.501 88.84C498.021 90.3333 502.235 91.6667 507.141 92.84L515.461 94.92C521.968 96.3067 527.781 98.2267 532.901 100.68C538.128 103.027 542.288 106.28 545.381 110.44C548.475 114.493 550.021 119.827 550.021 126.44C550.021 133.053 548.368 138.813 545.061 143.72C541.755 148.627 537.061 152.467 530.981 155.24C525.008 157.907 517.968 159.24 509.861 159.24Z" fill="black" fill-opacity="0.5"/>
<path d="M718.8 158V46H764.08C771.013 46 777.093 47.2267 782.32 49.68C787.653 52.0267 791.813 55.44 794.8 59.92C797.787 64.2933 799.28 69.5733 799.28 75.76V77.52C799.28 84.88 797.52 90.6933 794 94.96C790.48 99.2267 786.32 102.107 781.52 103.6V105.84C785.36 105.947 788.507 107.227 790.96 109.68C793.52 112.027 794.8 115.6 794.8 120.4V158H781.52V122C781.52 118.8 780.613 116.347 778.8 114.64C777.093 112.933 774.48 112.08 770.96 112.08H732.24V158H718.8ZM732.24 99.92H762.8C770.16 99.92 775.813 98.16 779.76 94.64C783.813 91.0133 785.84 86 785.84 79.6V78.48C785.84 72.08 783.867 67.12 779.92 63.6C775.973 59.9733 770.267 58.16 762.8 58.16H732.24V99.92ZM856.058 160.24C848.164 160.24 841.231 158.587 835.258 155.28C829.284 151.867 824.644 147.12 821.338 141.04C818.031 134.96 816.378 127.92 816.378 119.92V118C816.378 109.893 818.031 102.8 821.338 96.72C824.644 90.64 829.231 85.9467 835.098 82.64C840.964 79.2267 847.684 77.52 855.258 77.52C862.618 77.52 869.124 79.12 874.778 82.32C880.431 85.4133 884.858 89.8933 888.058 95.76C891.258 101.627 892.858 108.507 892.858 116.4V122.16H829.018C829.338 130.587 832.058 137.2 837.178 142C842.298 146.693 848.698 149.04 856.378 149.04C863.098 149.04 868.271 147.493 871.898 144.4C875.524 141.307 878.298 137.627 880.218 133.36L891.098 138.64C889.498 141.947 887.258 145.253 884.378 148.56C881.604 151.867 877.924 154.64 873.338 156.88C868.858 159.12 863.098 160.24 856.058 160.24ZM829.178 111.76H880.058C879.631 104.507 877.124 98.8533 872.538 94.8C868.058 90.7467 862.298 88.72 855.258 88.72C848.111 88.72 842.244 90.7467 837.658 94.8C833.071 98.8533 830.244 104.507 829.178 111.76ZM938.905 160.24C933.465 160.24 928.505 159.28 924.025 157.36C919.545 155.44 916.025 152.667 913.465 149.04C910.905 145.413 909.625 140.987 909.625 135.76C909.625 130.427 910.905 126.053 913.465 122.64C916.025 119.12 919.545 116.507 924.025 114.8C928.505 112.987 933.518 112.08 939.065 112.08H965.465V106.32C965.465 100.773 963.812 96.4 960.505 93.2C957.305 90 952.505 88.4 946.105 88.4C939.812 88.4 934.905 89.9467 931.385 93.04C927.865 96.0267 925.465 100.08 924.185 105.2L912.345 101.36C913.625 96.9867 915.652 93.04 918.425 89.52C921.198 85.8933 924.878 83.0133 929.465 80.88C934.158 78.64 939.758 77.52 946.265 77.52C956.292 77.52 964.078 80.1333 969.625 85.36C975.172 90.48 977.945 97.7333 977.945 107.12V142.48C977.945 145.68 979.438 147.28 982.425 147.28H989.625V158H978.585C975.065 158 972.238 157.04 970.105 155.12C967.972 153.093 966.905 150.427 966.905 147.12V146.32H964.985C963.812 148.347 962.212 150.48 960.185 152.72C958.265 154.853 955.598 156.613 952.185 158C948.772 159.493 944.345 160.24 938.905 160.24ZM940.345 149.36C947.812 149.36 953.838 147.173 958.425 142.8C963.118 138.32 965.465 132.08 965.465 124.08V122.32H939.545C934.532 122.32 930.372 123.44 927.065 125.68C923.865 127.813 922.265 131.067 922.265 135.44C922.265 139.813 923.918 143.227 927.225 145.68C930.638 148.133 935.012 149.36 940.345 149.36ZM1040.75 160.24C1033.18 160.24 1026.35 158.64 1020.27 155.44C1014.3 152.133 1009.55 147.44 1006.03 141.36C1002.62 135.28 1000.91 128.08 1000.91 119.76V118C1000.91 109.573 1002.62 102.373 1006.03 96.4C1009.55 90.32 1014.3 85.68 1020.27 82.48C1026.35 79.1733 1033.18 77.52 1040.75 77.52C1048.22 77.52 1054.56 78.9067 1059.79 81.68C1065.12 84.4533 1069.28 88.1333 1072.27 92.72C1075.36 97.3067 1077.34 102.213 1078.19 107.44L1065.87 110C1065.34 106.16 1064.06 102.64 1062.03 99.44C1060.11 96.24 1057.39 93.68 1053.87 91.76C1050.35 89.84 1046.03 88.88 1040.91 88.88C1035.68 88.88 1030.99 90.0533 1026.83 92.4C1022.78 94.7467 1019.52 98.1067 1017.07 102.48C1014.72 106.853 1013.55 112.08 1013.55 118.16V119.6C1013.55 125.68 1014.72 130.907 1017.07 135.28C1019.52 139.653 1022.78 143.013 1026.83 145.36C1030.99 147.707 1035.68 148.88 1040.91 148.88C1048.7 148.88 1054.62 146.853 1058.67 142.8C1062.83 138.747 1065.39 133.733 1066.35 127.76L1078.83 130.48C1077.66 135.6 1075.52 140.453 1072.43 145.04C1069.34 149.627 1065.12 153.307 1059.79 156.08C1054.56 158.853 1048.22 160.24 1040.75 160.24ZM1125.89 158C1121.41 158 1117.95 156.773 1115.49 154.32C1113.15 151.867 1111.97 148.507 1111.97 144.24V90.8H1088.45V79.76H1111.97V51.92H1124.61V79.76H1150.21V90.8H1124.61V142.32C1124.61 145.52 1126.16 147.12 1129.25 147.12H1146.69V158H1125.89Z" fill="black" fill-opacity="0.5"/>
</svg>
